<svg xmlns="http://www.w3.org/2000/svg" viewBox="0 0 300 240" role="img" aria-label="СудЭП — судебная экспертиза"><path fill="#ff7979" d="M18 76h83l22 32-22 33H18l22-33zM282 76h-83l-22 32 22 33h83l-22-33z"/><path fill="#595959" d="M62 27h176v127c0 44-39 80-88 80s-88-36-88-80z"/><path fill="#404040" d="m62 77-18 13h18zm176 0 18 13h-18z"/><path fill="#c00000" d="M44 90h212v69H44z"/><g fill="none" stroke="#fff" stroke-width="2.6" stroke-linecap="round" stroke-linejoin="round"><path d="M150 35v42m-29 0h58m-46-34h34m-17-10v10m-17 0-10 23h20l-10-23zm34 0-10 23h20l-10-23z"/><path d="M123 66q10 13 20 0m14 0q10 13 20 0"/></g><text x="150" y="144" fill="#fff" font-family="Arial,sans-serif" font-size="58" font-weight="900" text-anchor="middle">ЭП</text><text x="150" y="180" fill="#fff" font-family="Arial,sans-serif" font-size="11.3" font-weight="700" text-anchor="middle">СУДЕБНАЯ ЭКСПЕРТИЗА</text><path stroke="#fff" stroke-width="1.6" d="M113 195h74"/><g fill="#fff"><path d="m124 204 2 5h5l-4 3 2 5-5-3-4 3 1-5-4-3h5zM150 202l3 8h8l-6 5 2 8-7-5-7 5 2-8-6-5h8zM176 204l2 5h5l-4 3 2 5-5-3-4 3 1-5-4-3h5z"/></g></svg>